<svg id="visual" viewBox="0 0 900 600" width="900" height="600" xmlns="http://www.w3.org/2000/svg" xmlns:xlink="http://www.w3.org/1999/xlink" version="1.1"><rect x="0" y="0" width="900" height="600" fill="#001220"></rect><path d="M0 443L13.7 443.5C27.3 444 54.7 445 82 437.8C109.3 430.7 136.7 415.3 163.8 410C191 404.7 218 409.3 245.2 408C272.3 406.7 299.7 399.3 327 396C354.3 392.7 381.7 393.3 409 404.8C436.3 416.3 463.7 438.7 491 442.2C518.3 445.7 545.7 430.3 573 431.5C600.3 432.7 627.7 450.3 654.8 454.7C682 459 709 450 736.2 449.2C763.3 448.3 790.7 455.7 818 448.8C845.3 442 872.7 421 886.3 410.5L900 400L900 601L886.3 601C872.7 601 845.3 601 818 601C790.7 601 763.3 601 736.2 601C709 601 682 601 654.8 601C627.7 601 600.3 601 573 601C545.7 601 518.3 601 491 601C463.7 601 436.3 601 409 601C381.7 601 354.3 601 327 601C299.7 601 272.3 601 245.2 601C218 601 191 601 163.8 601C136.7 601 109.3 601 82 601C54.7 601 27.3 601 13.7 601L0 601Z" fill="#0066ff"></path><path d="M0 507L13.7 499C27.3 491 54.7 475 82 476.8C109.3 478.7 136.7 498.3 163.8 501.8C191 505.3 218 492.7 245.2 488.3C272.3 484 299.7 488 327 490.7C354.3 493.3 381.7 494.7 409 493C436.3 491.3 463.7 486.7 491 488.5C518.3 490.3 545.7 498.7 573 503.8C600.3 509 627.7 511 654.8 501.8C682 492.7 709 472.3 736.2 473.3C763.3 474.3 790.7 496.7 818 506C845.3 515.3 872.7 511.7 886.3 509.8L900 508L900 601L886.3 601C872.7 601 845.3 601 818 601C790.7 601 763.3 601 736.2 601C709 601 682 601 654.8 601C627.7 601 600.3 601 573 601C545.7 601 518.3 601 491 601C463.7 601 436.3 601 409 601C381.7 601 354.3 601 327 601C299.7 601 272.3 601 245.2 601C218 601 191 601 163.8 601C136.7 601 109.3 601 82 601C54.7 601 27.3 601 13.7 601L0 601Z" fill="#008cff"></path><path d="M0 533L13.7 531.3C27.3 529.7 54.7 526.3 82 530.8C109.3 535.3 136.7 547.7 163.8 547.7C191 547.7 218 535.3 245.2 535.2C272.3 535 299.7 547 327 554.7C354.3 562.3 381.7 565.7 409 564.5C436.3 563.3 463.7 557.7 491 555C518.3 552.3 545.7 552.7 573 551.5C600.3 550.3 627.7 547.7 654.8 548.5C682 549.3 709 553.7 736.2 549C763.3 544.3 790.7 530.7 818 522.2C845.3 513.7 872.7 510.3 886.3 508.7L900 507L900 601L886.3 601C872.7 601 845.3 601 818 601C790.7 601 763.3 601 736.2 601C709 601 682 601 654.8 601C627.7 601 600.3 601 573 601C545.7 601 518.3 601 491 601C463.7 601 436.3 601 409 601C381.7 601 354.3 601 327 601C299.7 601 272.3 601 245.2 601C218 601 191 601 163.8 601C136.7 601 109.3 601 82 601C54.7 601 27.3 601 13.7 601L0 601Z" fill="#4facf7"></path></svg>